<?xml version="1.0" standalone="no"?><!DOCTYPE svg PUBLIC "-//W3C//DTD SVG 1.1//EN" "http://www.w3.org/Graphics/SVG/1.1/DTD/svg11.dtd"><svg class="icon" width="200px" height="200.00px" viewBox="0 0 1024 1024" version="1.1" xmlns="http://www.w3.org/2000/svg"><path d="M511.999488 64.303538c-156.537196 0-283.434328 126.898155-283.434328 283.434328 0 47.625694 11.888771 92.422969 32.636305 131.838677l-0.103354 0.051165 250.9024 480.068753 247.800759-474.532667c22.654976-40.71019 35.633568-87.534636 35.633568-137.425929C795.433816 191.201693 668.536684 64.303538 511.999488 64.303538zM511.999488 445.800275c-48.136324 0-87.176478-39.040155-87.176478-87.211271 0-48.136324 39.040155-87.176478 87.176478-87.176478 48.170093 0 87.211271 39.040155 87.211271 87.176478C599.209736 406.759097 560.169581 445.800275 511.999488 445.800275z" fill="#d81e06" /></svg>